<?xml version="1.0" encoding="UTF-8"?>
<svg xmlns="http://www.w3.org/2000/svg" version="1.1" viewBox="0 0 500 500">
  <defs>
    <style>
      .cls-1, .cls-2, .cls-3, .cls-4, .cls-5, .cls-6, .cls-7, .cls-8, .cls-9, .cls-10, .cls-11, .cls-12, .cls-13, .cls-14, .cls-15, .cls-16, .cls-17, .cls-18, .cls-19, .cls-20 {
        stroke-width: 0px;
      }

      .cls-1, .cls-2, .cls-15 {
        opacity: .4;
      }

      .cls-1, .cls-3 {
        fill: #000;
      }

      .cls-2, .cls-11 {
        fill: #444d3d;
      }

      .cls-3, .cls-4 {
        opacity: .2;
      }

      .cls-4, .cls-6, .cls-9, .cls-20 {
        fill: #96ac6f;
      }

      .cls-5 {
        fill: #e7f2f7;
      }

      .cls-6 {
        opacity: .3;
      }

      .cls-7 {
        fill: #407bff;
      }

      .cls-8 {
        fill: #dae9ef;
      }

      .cls-9 {
        opacity: .7;
      }

      .cls-10, .cls-12, .cls-15, .cls-18 {
        fill: #fff;
      }

      .cls-10, .cls-13 {
        opacity: .5;
      }

      .cls-12 {
        opacity: .9;
      }

      .cls-13, .cls-14 {
        fill: #939e74;
      }

      .cls-16 {
        fill: #ebebeb;
      }

      .cls-17 {
        fill: #edeecc;
      }

      .cls-21 {
        display: none;
      }

      .cls-19 {
        fill: #f5f5f5;
      }
    </style>
  </defs>
  <g id="Background_Complete" data-name="Background Complete">
    <g>
      <rect class="cls-16" y="382.4" width="500" height=".25"/>
      <rect class="cls-16" x="104.54" y="389.21" width="33.12" height=".25"/>
      <rect class="cls-16" x="171.14" y="398.37" width="40.75" height=".25"/>
      <rect class="cls-16" x="52.46" y="395.24" width="51.08" height=".25"/>
      <rect class="cls-16" x="356.76" y="390.89" width="93.14" height=".25"/>
      <rect class="cls-16" x="341.53" y="390.89" width="6.33" height=".25"/>
      <rect class="cls-16" x="277.21" y="395.11" width="42.23" height=".25"/>
      <path class="cls-16" d="M237.01,337.8H43.91c-3.15,0-5.71-2.56-5.71-5.71V60.66c0-3.15,2.56-5.71,5.71-5.71h193.1c3.15,0,5.71,2.56,5.71,5.71v271.43c0,3.15-2.56,5.71-5.71,5.71ZM43.91,55.2c-3.01,0-5.46,2.45-5.46,5.46v271.43c0,3.01,2.45,5.46,5.46,5.46h193.1c3.01,0,5.46-2.45,5.46-5.46V60.66c0-3.01-2.45-5.46-5.46-5.46H43.91Z"/>
      <path class="cls-16" d="M453.31,337.8h-193.1c-3.15,0-5.71-2.56-5.71-5.71V60.66c0-3.15,2.56-5.71,5.71-5.71h193.1c3.15,0,5.71,2.56,5.71,5.71v271.43c0,3.15-2.56,5.71-5.71,5.71ZM260.21,55.2c-3.01,0-5.46,2.45-5.46,5.46v271.43c0,3.01,2.45,5.46,5.46,5.46h193.1c3.01,0,5.46-2.45,5.46-5.46V60.66c0-3.01-2.45-5.46-5.46-5.46h-193.1Z"/>
    </g>
    <g>
      <g>
        <polygon class="cls-8" points="192.75 382.4 176.67 382.4 176.67 141 185.67 141 192.75 382.4"/>
        <path class="cls-8" d="M184.21,149.33h-15.09c-4.58,0-8.33-3.75-8.33-8.33h0c0-4.58,3.75-8.33,8.33-8.33h15.09c4.58,0,8.33,3.75,8.33,8.33h0c0,4.58-3.75,8.33-8.33,8.33Z"/>
        <ellipse class="cls-17" cx="167.57" cy="141.12" rx="8.02" ry="8.94"/>
        <polygon class="cls-17" points="167.57 141.12 99.8 72.05 139.58 132.24 167.57 141.12"/>
        <polygon class="cls-17" points="167.57 141.12 141.63 234.34 173.87 169.8 167.57 141.12"/>
        <polygon class="cls-17" points="167.57 141.12 261.27 116.97 189.26 121.32 167.57 141.12"/>
      </g>
      <g>
        <polygon class="cls-8" points="333.37 382.4 319.83 382.4 319.83 158.9 327.41 158.9 333.37 382.4"/>
        <path class="cls-8" d="M326.18,165.91h-12.7c-3.86,0-7.01-3.16-7.01-7.01h0c0-3.86,3.16-7.01,7.01-7.01h12.7c3.86,0,7.01,3.16,7.01,7.01h0c0,3.86-3.16,7.01-7.01,7.01Z"/>
        <ellipse class="cls-17" cx="312.17" cy="159" rx="6.75" ry="7.52"/>
        <polygon class="cls-17" points="312.17 159 346.1 84.96 310.74 134.32 312.17 159"/>
        <polygon class="cls-17" points="312.17 159 231.09 166.63 291.52 172.58 312.17 159"/>
        <polygon class="cls-17" points="312.17 159 359.33 225.4 334.26 170.1 312.17 159"/>
      </g>
      <g>
        <path class="cls-8" d="M273.06,340.99s-48.68-24.17,2.38-53.11c51.07-28.94,61.62,22.13,61.62,22.13,0,0,8.17-47.32,50.38-23.83,32.58,18.13,26.03,40.61,21.34,49.93,4.99-6.84,17.54-17.91,40.96-3.63,31.83,19.4-4.37,49.92-4.37,49.92h-192.23c-24.51-38.76,19.91-41.41,19.91-41.41Z"/>
        <path class="cls-5" d="M266.96,328.33s60.34-31.56-2.95-69.33c-63.29-37.78-76.37,28.89-76.37,28.89,0,0-10.13-61.78-62.44-31.11-40.37,23.66-32.26,53.01-26.44,65.19-6.19-8.93-21.74-23.38-50.77-4.74-39.45,25.33,5.42,65.18,5.42,65.18h238.24c30.37-50.6-24.68-54.07-24.68-54.07Z"/>
      </g>
      <g>
        <path class="cls-8" d="M121.61,148.15c-2.72-5.48-8-9.38-13.41-9.38-3.4,0-6.23,1.53-8.08,4.03-1.75-1.42-3.82-2.28-5.92-2.28-3.7,0-6.41,2.64-7.06,6.36-1.72-.83-3.57-1.34-5.45-1.42-3.69-.17-6.61,1.35-8.11,3.81-.69-.41-1.48-.67-2.28-.71-2.13-.1-3.51,1.43-3.09,3.41.03.12.06.24.09.36h59.84c.14-1.94-3.9-4.1-6.54-4.2Z"/>
        <path class="cls-17" d="M434.04,129.71c-2.72-5.48-8-9.38-13.41-9.38-3.4,0-6.23,1.53-8.08,4.03-1.75-1.42-3.82-2.28-5.92-2.28-3.7,0-6.41,2.64-7.06,6.36-1.72-.83-3.57-1.34-5.45-1.42-3.69-.17-6.61,1.35-8.11,3.81-.69-.41-1.48-.67-2.28-.71-2.13-.1-3.51,1.43-3.09,3.41.03.12.06.24.09.36h59.84c.14-1.94-3.9-4.1-6.54-4.2Z"/>
        <path class="cls-17" d="M287.16,206.46c-.3-.03-.58-.05-.86-.05-2.66-3.24-5.99-5.3-9.12-5.3-2.26,0-4.06,1.08-5.24,2.9-4.85-6.28-11.12-10.36-16.99-10.36-4.73,0-8.33,2.65-10.34,6.99-2.74-2.46-5.81-3.94-8.74-3.94-5.14,0-8.34,4.56-8.4,11,0,0,0,0,0,0-2.56-1.44-5.26-2.32-7.89-2.46-5.16-.29-8.88,2.33-10.42,6.6-1.06-.72-2.21-1.17-3.33-1.23-2.82-.16-4.39,2.2-3.69,5.35h97.9c-2.01-4.78-7.61-8.96-12.88-9.5Z"/>
        <path class="cls-8" d="M314.63,75.78c-.15-.02-.29-.02-.43-.02-1.33-1.62-3-2.65-4.56-2.65-1.13,0-2.03.54-2.62,1.45-2.43-3.14-5.56-5.18-8.49-5.18-2.37,0-4.16,1.33-5.17,3.49-1.37-1.23-2.91-1.97-4.37-1.97-2.57,0-4.17,2.28-4.2,5.5,0,0,0,0,0,0-1.28-.72-2.63-1.16-3.95-1.23-2.58-.15-4.44,1.17-5.21,3.3-.53-.36-1.11-.58-1.67-.61-1.41-.08-2.19,1.1-1.84,2.68h48.95c-1-2.39-3.81-4.48-6.44-4.75Z"/>
      </g>
    </g>
  </g>
  <g id="Background_Simple" data-name="Background Simple" class="cls-21">
    <g>
      <path class="cls-7" d="M397.36,328.05c-31.32,28.1-87.59,35.73-137.11,29.8-128.37-14.94-131.28-169.9-83.36-185.55,43.28-20.23,74.56,13.63,105.74,17.24,175.68,19.82,141.38,115.35,114.73,138.51Z"/>
      <path class="cls-12" d="M397.36,328.05c-31.32,28.1-87.59,35.73-137.11,29.8-128.37-14.94-131.28-169.9-83.36-185.55,43.28-20.23,74.56,13.63,105.74,17.24,175.68,19.82,141.38,115.35,114.73,138.51Z"/>
    </g>
  </g>
  <g id="Shadow">
    <ellipse id="_Path_" data-name="&amp;lt;Path&amp;gt;" class="cls-19" cx="250" cy="416.24" rx="193.89" ry="11.32"/>
  </g>
  <g id="Electric_Car" data-name="Electric Car">
    <g>
      <g>
        <g>
          <path class="cls-20" d="M268.98,336.37s-.08,0-.11,0h0s-30.69,0-30.69,0c-13.21,0-23.92,17.33-23.92,38.71s10.71,38.71,23.92,38.71h30.69s.08,0,.11,0c13.21,0,23.92-17.33,23.92-38.71s-10.71-38.71-23.92-38.71Z"/>
          <path class="cls-3" d="M268.98,336.37s-.08,0-.11,0h0s-30.69,0-30.69,0c-13.21,0-23.92,17.33-23.92,38.71s10.71,38.71,23.92,38.71h30.69s.08,0,.11,0c13.21,0,23.92-17.33,23.92-38.71s-10.71-38.71-23.92-38.71Z"/>
        </g>
        <g>
          <path class="cls-20" d="M129.94,336.37s-.08,0-.11,0h0s-30.69,0-30.69,0c-13.21,0-23.92,17.33-23.92,38.71s10.71,38.71,23.92,38.71h30.69s.08,0,.11,0c13.21,0,23.92-17.33,23.92-38.71s-10.71-38.71-23.92-38.71Z"/>
          <path class="cls-3" d="M129.94,336.37s-.08,0-.11,0h0s-30.69,0-30.69,0c-13.21,0-23.92,17.33-23.92,38.71s10.71,38.71,23.92,38.71h30.69s.08,0,.11,0c13.21,0,23.92-17.33,23.92-38.71s-10.71-38.71-23.92-38.71Z"/>
        </g>
      </g>
      <path class="cls-20" d="M423.91,306.98l7.02,6.03c3.32,2.85,4.77,7.32,3.76,11.58l-1.6,6.74-9.17-24.35Z"/>
      <g>
        <path class="cls-20" d="M436.64,346.27h0c-1.22-13.21-4.67-26.11-10.22-38.15l-2.39-5.19h-58.32s30.23,87,30.23,87h0c10.63-2.65,20.49-7.78,28.75-14.97l.7-.61c8.05-7.01,12.24-17.45,11.26-28.08Z"/>
        <path class="cls-10" d="M436.64,346.27h0c-1.22-13.21-4.67-26.11-10.22-38.15l-2.39-5.19h-58.32s30.23,87,30.23,87h0c10.63-2.65,20.49-7.78,28.75-14.97l.7-.61c8.05-7.01,12.24-17.45,11.26-28.08Z"/>
      </g>
      <g>
        <path class="cls-20" d="M359.24,413.79c-13.21,0-23.92-17.33-23.92-38.71s10.71-38.71,23.92-38.71h30.69v77.42h-30.69Z"/>
        <ellipse class="cls-20" cx="390.04" cy="375.08" rx="23.92" ry="38.71"/>
        <ellipse class="cls-3" cx="390.04" cy="375.08" rx="16.78" ry="24.48"/>
      </g>
      <g>
        <path class="cls-20" d="M184.64,389.93l-57.51-92.31s45.5-46.01,144.91-46.01c86.05,0,137.59,28.42,152,51.32l-34.11,33.44c-33.03,0-32.82,35.02-37.35,49.74-.7,2.28-2.78,3.81-5.21,3.81h-162.73"/>
        <path class="cls-10" d="M184.64,389.93l-57.51-92.31s45.5-46.01,144.91-46.01c86.05,0,137.59,28.42,152,51.32l-34.11,33.44c-33.03,0-32.82,35.02-37.35,49.74-.7,2.28-2.78,3.81-5.21,3.81h-162.73"/>
      </g>
      <g>
        <path class="cls-20" d="M220.2,413.79c-13.21,0-23.92-17.33-23.92-38.71s10.71-38.71,23.92-38.71h30.69v77.42h-30.69Z"/>
        <ellipse class="cls-20" cx="251" cy="375.08" rx="23.92" ry="38.71"/>
        <ellipse class="cls-3" cx="251" cy="375.08" rx="16.78" ry="24.48"/>
      </g>
      <g>
        <path class="cls-20" d="M208.89,382.31c2.93-17.29,20.17-45.94,41.99-45.94l21.15-38.75H127.12c-9.24,0-52.44,15.61-68.17,31.34-11.01,11.01-12.15,22.09-13.45,50.29-.26,5.76,5.03,10.71,11.39,10.71,53.46.02,118.16.21,141.71.28,5.2.02,9.51-3.3,10.29-7.93Z"/>
        <path class="cls-10" d="M208.89,382.31c2.93-17.29,20.17-45.94,41.99-45.94l21.15-38.75H127.12c-9.24,0-52.44,15.61-68.17,31.34-11.01,11.01-12.15,22.09-13.45,50.29-.26,5.76,5.03,10.71,11.39,10.71,53.46.02,118.16.21,141.71.28,5.2.02,9.51-3.3,10.29-7.93Z"/>
      </g>
      <path class="cls-6" d="M272.03,251.61c-98.79,0-143.87,45.3-144.89,46h-.01s99.96.01,99.96.01c0,0,42.98-37.15,71.46-45.06-8.43-.62-17.28-.95-26.51-.95Z"/>
      <path class="cls-9" d="M148.42,337.16c13.72-5.19,55.12-19.78,66.41-15.99,11.29,3.79-16.05,17.33-22.94,19.13-6.88,1.8-11.41-1.8-21.72,3.18-10.31,4.98-38.36-.03-21.76-6.32Z"/>
      <path class="cls-4" d="M318.26,390.45c-.1,0-.21-.03-.3-.09-.24-.16-.3-.49-.14-.73.2-.3,20.47-30.81,20.47-92.01,0-.29.24-.53.53-.53s.53.24.53.53c0,61.56-20.44,92.3-20.65,92.6-.1.15-.27.23-.44.23Z"/>
      <path class="cls-4" d="M98.74,343.22s-.08,0-.12-.01l-27.53-6.33c-.28-.07-.46-.35-.4-.63.06-.28.35-.46.63-.4l27.44,6.31,45.37-5.17c.29-.03.55.17.58.46.03.29-.17.55-.46.58l-45.46,5.18s-.04,0-.06,0Z"/>
      <path class="cls-4" d="M389.93,336.9c-.14,0-.27-.05-.38-.16-.2-.21-.2-.54,0-.75,9.62-9.43,14.74-31.45,14.74-43.73,0-.29.24-.53.53-.53s.53.24.53.53c0,12.46-5.23,34.85-15.05,44.48-.1.1-.24.15-.37.15Z"/>
      <path class="cls-20" d="M312.46,308.14h13.71c1.06,0,1.93-.87,1.93-1.93h0c0-1.06-.87-1.93-1.93-1.93h-13.71c-1.06,0-1.93.87-1.93,1.93h0c0,1.06.87,1.93,1.93,1.93Z"/>
      <path class="cls-20" d="M372.61,308.14h13.7c1.06,0,1.93-.87,1.93-1.93h0c0-1.06-.87-1.93-1.93-1.93h-13.7c-1.06,0-1.93.87-1.93,1.93h0c0,1.06.87,1.93,1.93,1.93Z"/>
      <path class="cls-9" d="M70.24,337.67c-2.83-1.72-7.45-4.44-12.69-7.23-3,3.25-5.18,6.58-6.78,10.41,1.58.32,3.39,1.06,5.64,2.79,6.68,5.14,24.57.59,13.83-5.97Z"/>
      <path class="cls-6" d="M244.76,297.62h139.69c7.14,0,14.16-1.84,20.38-5.35h0s-22.6-20.54-68.11-29.39c-18.7-3.64-36.43-5.05-41.88-4.7-13,6.85-32.92,21.26-50.08,39.44Z"/>
      <path class="cls-20" d="M160.97,383.52H61.66c-2.39,0-3.66-2.82-2.08-4.61l2.57-2.9c.53-.59,1.28-.93,2.08-.93h94.18c.79,0,1.55.34,2.08.93l2.57,2.9c1.58,1.79.31,4.61-2.08,4.61Z"/>
      <path class="cls-20" d="M421.5,337.32l-6.26,1.21v-16.96l6.26,1.21c.85.16,1.48,1.31,1.48,2.66v9.21c0,1.36-.64,2.5-1.48,2.66Z"/>
    </g>
  </g>
  <g id="Charger">
    <g>
      <g>
        <path class="cls-14" d="M316.09,421.45c-4.97,0-7.71-1.24-7.71-3.48,0-1.91,2.13-3.32,6.52-4.3,4.26-.96,10.44-1.46,17.88-1.46h80.24c4.87,0,8.54-1.42,11.21-4.34,7.23-7.91,5.61-25.73,4.43-38.74-.4-4.42-.78-8.59-.78-11.85,0-4.87.64-9.15,1.2-12.92.75-5.05,1.34-9.03-.27-10.91-1.06-1.23-3.27-1.82-6.77-1.82v-3.16c4.53,0,7.44.93,9.16,2.92,2.56,2.97,1.87,7.59,1,13.44-.55,3.67-1.17,7.83-1.17,12.46,0,3.11.37,7.21.77,11.56,1.3,14.35,2.93,32.21-5.24,41.16-3.26,3.57-7.81,5.37-13.55,5.37h-80.24c-12.95,0-18.71,1.52-20.62,2.47.73.22,1.98.44,3.93.44v3.16Z"/>
        <path class="cls-14" d="M422.04,324.55v10.98c3.03,0,5.49-2.46,5.49-5.49s-2.46-5.49-5.49-5.49Z"/>
      </g>
      <g>
        <rect class="cls-11" x="332.78" y="165.89" width="42.02" height="252.61"/>
        <rect class="cls-11" x="336.38" y="162.78" width="49.96" height="3.11"/>
        <rect class="cls-1" x="374.81" y="162.78" width="11.53" height="3.11"/>
        <polygon class="cls-18" points="360.72 188.27 353.65 188.27 359.83 178.49 352.06 178.49 346.87 192.32 353.32 192.32 349.39 204.81 360.72 188.27"/>
        <circle class="cls-13" cx="353.8" cy="325.51" r="8.83" transform="translate(-126.55 345.51) rotate(-45)"/>
        <path class="cls-14" d="M316.09,421.45c-.87,0-1.58-.71-1.58-1.58s.71-1.58,1.58-1.58c5.09,0,8.6-1.26,10.74-3.85,4.92-5.94,2.47-18.75-.12-32.31-1.72-9-3.5-18.31-3.5-26.96,0-20.14,10.86-31.24,30.59-31.24.87,0,1.58.71,1.58,1.58s-.71,1.58-1.58,1.58c-12.51,0-27.42,4.87-27.42,28.08,0,8.35,1.75,17.51,3.44,26.36,2.73,14.31,5.32,27.83-.55,34.92-2.78,3.36-7.09,5-13.18,5Z"/>
        <rect class="cls-13" x="338.03" y="246.01" width="31.54" height="63.74"/>
        <polygon class="cls-13" points="338.03 246.01 338.03 309.74 349.32 254.88 338.03 246.01"/>
        <polygon class="cls-14" points="363.58 267.5 364.22 264.39 355.61 264.39 354.97 267.5 351.64 267.5 345.54 297.12 360.89 297.12 366.99 267.5 363.58 267.5"/>
        <path class="cls-15" d="M362.78,278.01l-3.14,15.26c-.22,1.08-1.17,1.85-2.27,1.85h-7.66c-.89,0-1.55-.81-1.37-1.68l3.14-15.26c.22-1.08,1.17-1.85,2.27-1.85h7.66c.89,0,1.55.81,1.37,1.68Z"/>
        <polygon class="cls-2" points="338.03 246.01 369.57 246.01 369.57 254.88 349.32 254.88 338.03 246.01"/>
        <g>
          <rect class="cls-11" x="374.81" y="165.89" width="15.12" height="252.61" transform="translate(764.73 584.39) rotate(180)"/>
          <rect class="cls-1" x="374.81" y="165.89" width="15.12" height="252.61" transform="translate(764.73 584.39) rotate(180)"/>
        </g>
      </g>
    </g>
  </g>
</svg>