<?xml version="1.0" encoding="UTF-8"?>
<svg xmlns="http://www.w3.org/2000/svg" version="1.1" viewBox="0 0 500 500">
  <defs>
    <style>
      .cls-1 {
        opacity: .6;
      }

      .cls-1, .cls-2, .cls-3, .cls-4, .cls-5, .cls-6, .cls-7, .cls-8, .cls-9, .cls-10, .cls-11, .cls-12, .cls-13, .cls-14, .cls-15, .cls-16, .cls-17, .cls-18, .cls-19, .cls-20, .cls-21, .cls-22, .cls-23, .cls-24, .cls-25 {
        stroke-width: 0px;
      }

      .cls-1, .cls-11 {
        fill: #bd7080;
      }

      .cls-2 {
        fill: #253238;
      }

      .cls-3 {
        fill: #35474f;
      }

      .cls-4 {
        fill: #f08f8f;
      }

      .cls-5, .cls-12 {
        opacity: .2;
      }

      .cls-5, .cls-13, .cls-17, .cls-22, .cls-25 {
        fill: #fff;
      }

      .cls-6 {
        fill: #2f3731;
      }

      .cls-7 {
        fill: #809778;
      }

      .cls-8 {
        fill: #e8d9a9;
      }

      .cls-9 {
        fill: #435a64;
      }

      .cls-10 {
        fill: #689254;
      }

      .cls-12 {
        fill: #000;
      }

      .cls-13 {
        opacity: .65;
      }

      .cls-14 {
        fill: #e0e0e0;
      }

      .cls-15 {
        fill: #af6668;
      }

      .cls-16 {
        fill: #e0e0e0;
      }

      .cls-17 {
        opacity: .3;
      }

      .cls-18 {
        fill: #7c5f53;
      }

      .cls-19 {
        fill: #5f392f;
      }

      .cls-20 {
        fill: #ee997a;
      }

      .cls-21 {
        fill: #fdbda7;
      }

      .cls-22 {
        opacity: .5;
      }

      .cls-23 {
        fill: #929b7c;
      }

      .cls-24 {
        fill: #fafafa;
      }
    </style>
  </defs>
  <g id="Floor">
    <path id="Floor-2" data-name="Floor" class="cls-24" d="M85.45,266.77c-90.87,52.47-90.87,137.53,0,190,90.88,52.47,238.22,52.47,329.09,0,90.87-52.47,90.87-137.53,0-190-90.88-52.47-238.22-52.47-329.09,0Z"/>
  </g>
  <g id="Shadows">
    <g id="Shadows-2" data-name="Shadows">
      <path id="Shadow" class="cls-16" d="M78.88,449.2c-7.05,0-13.72-1.61-18.8-4.55l-18.31-10.55c-5.69-3.28-8.82-7.86-8.82-12.89s3.13-9.61,8.82-12.89l146.97-84.81c5.08-2.93,11.76-4.55,18.8-4.55s13.72,1.61,18.8,4.55l18.31,10.56c5.69,3.28,8.82,7.86,8.82,12.89s-3.13,9.6-8.82,12.89l-146.98,84.81c-5.08,2.93-11.75,4.55-18.8,4.55Z"/>
      <path id="Shadow-2" data-name="Shadow" class="cls-16" d="M437.11,365.04c24.86,14.35,24.86,37.63,0,51.98-24.86,14.35-65.17,14.35-90.04,0-24.86-14.35-24.86-37.63,0-51.98,24.86-14.35,65.17-14.35,90.04,0Z"/>
    </g>
  </g>
  <g id="Lines">
    <g id="Lines-2" data-name="Lines">
      <path class="cls-16" d="M231.81,177.07c-.34,0-.68-.11-.97-.32-.73-.54-.88-1.57-.34-2.29l16.57-22.38c.54-.73,1.56-.88,2.29-.34.73.54.88,1.57.34,2.29l-16.57,22.38c-.32.43-.82.66-1.32.66Z"/>
      <path class="cls-16" d="M243.72,192.5c-.54,0-1.07-.27-1.38-.76-.49-.76-.26-1.78.5-2.26l24.88-15.87c.77-.49,1.78-.26,2.26.5.49.76.26,1.78-.5,2.26l-24.88,15.87c-.27.17-.58.26-.88.26Z"/>
      <path class="cls-16" d="M213.19,171.58c-.15,0-.29-.02-.44-.06-.87-.24-1.38-1.15-1.14-2.02l7.71-27.68c.24-.87,1.15-1.38,2.02-1.14.87.24,1.38,1.15,1.14,2.02l-7.71,27.68c-.2.73-.86,1.2-1.58,1.2Z"/>
    </g>
  </g>
  <g id="Speech_Bubble" data-name="Speech Bubble">
    <g id="Speech_Bubble-2" data-name="Speech Bubble">
      <g id="Speech_Bubble-3" data-name="Speech Bubble">
        <path class="cls-25" d="M335.74,67.75c6.04,3.63,10.11,9.29,11.91,15.58l.67,2.98c1,6.03-.05,12.44-3.44,18.09-7.58,12.62-24.02,16.72-36.65,9.14-5.64-3.39-9.58-8.56-11.53-14.35l-.81-2.95c-1.37-6.4-.43-13.31,3.2-19.35,7.59-12.63,24.03-16.73,36.65-9.14Z"/>
        <path class="cls-18" d="M297.12,75.77c-8.2,13.71-3.73,31.54,9.98,39.74,12.3,7.36,27.91,4.5,36.91-6.06l8.87,1.52c1.52.26,2.56-1.48,1.61-2.69l-5.53-7.1c5.05-12.93.19-28.03-12.1-35.39-13.71-8.2-31.54-3.72-39.74,9.98ZM335.7,67.72c6.04,3.62,10.13,9.27,11.94,15.56l.67,2.98c1.01,6.03-.03,12.44-3.41,18.09-7.56,12.64-23.99,16.76-36.63,9.2-5.65-3.38-9.59-8.54-11.56-14.33l-.82-2.95c-1.38-6.4-.45-13.31,3.17-19.35,7.56-12.64,24-16.77,36.64-9.2Z"/>
      </g>
      <g id="Check">
        <path class="cls-7" d="M317.86,106.48c-1.16,0-2.26-.48-3.06-1.33l-9.49-10.14c-1.58-1.69-1.49-4.34.19-5.92,1.69-1.58,4.34-1.49,5.92.19l6.17,6.58,14.59-18.48c1.43-1.82,4.06-2.13,5.88-.69,1.82,1.43,2.13,4.07.69,5.88l-17.6,22.3c-.76.96-1.89,1.54-3.11,1.59-.06,0-.12,0-.18,0Z"/>
      </g>
    </g>
  </g>
  <g id="Character">
    <g id="Bottom">
      <g id="Bottom-2" data-name="Bottom">
        <g>
          <polygon class="cls-2" points="379.71 381.14 376.09 379.24 379.77 378.38 379.71 381.14"/>
          <path class="cls-2" d="M342.83,386.46s44.3-17.61,44.74-14.73c.1.63.05,1.2-.09,1.72.04-.05.09-.1.12-.15l-1.01,5.31s-3.22,2.48-6.89,2.53c0-.26.04-1.85.06-2.76-1.2.44-2.44.97-3.92,1.85-2.86,1.7-4.78,4.79-7.88,8.34-2.26,2.59-6.16,3.7-11.9,4.28-6.17.63-11.54-.71-13-2.37-1.17-1.32-.47-3.66-.23-4.02Z"/>
          <path class="cls-21" d="M344.07,385.51c.44-.41,2.05-2.03,4.23-3.77,1.9-1.52,4.12-3.46,6.49-5,.94-.61,2.4-1.6,3.22-2.4.79-.77,1.55-1.57,2.26-2.41,1.96-2.32,3.63-4.88,5.07-7.53,1.24-2.28,1.57-3.91,1.56-6.49-.03-6.32-.32-12.66-1.17-18.94l21,.33c-.73,3.21-1.16,8.7-1.62,12.36-.7,5.57-.9,6.81,1.13,12.46.6,1.66,1.52,3.28,1.54,5.04.03,2.86-2.37,5.25-5,6.55-2.18,1.08-4.66,1.49-6.77,2.65-2.23,1.22-4,3.12-5.62,5-1.54,1.78-2.8,3.89-4.9,5.11-2.34,1.34-4.53,1.71-7.19,2.14-3.06.49-6.97.42-9.55.13-4.51-.51-7.82-2.23-4.65-5.23Z"/>
          <path class="cls-3" d="M361.41,377.38c-3.11-1.74-6-1.17-6.74-.84-3.31,2.36-6.05,4.47-7.99,5.95-2.35,1.79-4.41,3.42-4.41,5.56,0,3.36,13.35,4.85,20.95,1.93,3.94-1.19,5.46-4.32,5.46-4.32,0,0-.92-4.74-7.27-8.29ZM387.31,366.22c-1.06-2.2-1.45-3.32-1.45-3.32-2.65,1.28-7.41,7.45-5.58,13.89,2.39-.52,4.73-1.32,6.72-4.11,1.5-2.11,1.37-4.27.31-6.47Z"/>
        </g>
        <g>
          <path class="cls-2" d="M419.7,370.52c-1.23,1.92.37,9.17.08,14.33-.26,4.69-1.55,12.86-.06,17.49,1.76,5.49,5.34,11.86,12,6.71,4.13-3.19,6.49-7.3,7.06-14.05.39-4.69-1.54-11.17-3.2-16.93-1.94-6.72-2.68-10.31-2.68-10.31l-13.21,2.76Z"/>
          <path class="cls-21" d="M433.37,335.94c.48,10.93-.84,18.61-.91,25.61.07,3.26.3,6.01,1.03,9.45.95,4.47,2.56,10.68,3.23,13.57.95,4.04,1.66,6.59.22,11.13-.11.35-.28.69-.47,1.02-2.02,3.74-7.14,6.56-8.78,6.11-.46.74-1.62,1.18-2.88.98-.18-.03-.36-.07-.55-.13-.18-.06-.37-.13-.55-.21-1.09-.52-2.13-1.59-2.73-3.44-.1-.31-.19-.64-.26-.99-1.19-5.63-.33-9.27-.22-11.47.13-2.54-.02-5.78-.25-9.88-.23-4.1-1.24-16.98-2.71-23.14-1.09-4.3-2.45-9.69-3.89-15.44l19.73-3.18Z"/>
          <path class="cls-3" d="M437.72,389.85c-4.04-1.73-15.76-1.97-17.63,3.56-.05,5.2-.08,8.73,3.31,13.26,4.51,6.01,10.39-.36,12.64-4.41,2.25-4.05,2.23-9.6,1.67-12.4Z"/>
        </g>
        <path class="cls-3" d="M418.09,193.15c5.71,9.91,10.31,18.27,11.8,44.45,1.68,29.55,1.43,40.8,1.57,44.37.15,3.57,2.52,10.11,4.53,27.67,2.01,17.56-.11,60.14-.11,60.14,0,0-1.43,2.87-8.36,3.52-6.4.6-10.15-1.57-10.15-1.57,0,0-12.35-53.27-14.8-63.86-3.46-14.95-8.55-44.6-8.55-44.6l-3.12,24.91s2.03,9.69.19,25.11c-1.84,15.43-5.24,44.93-5.24,44.93,0,0-4.02,2.74-9.46,3.33-6.18.67-10.35-2.16-10.35-2.16,0,0-6.2-61.14-6.33-78.61-.13-17.47,1.26-61.06,6.74-86.96l51.62-.68Z"/>
        <path class="cls-2" d="M370.1,218.88c2.77,7.19,12.71,12.18,17.06,13.16l4.46,30.87-.71,25.27,3.12-24.91-5.12-36.9s-12.06-.75-18.82-7.49ZM411.32,215.07c.73,2.83,1.4,5.68,2.11,8.52.7,2.85,1.39,5.7,2.14,8.57.05-2.96-.25-5.91-.67-8.83-.41-2.93-1.01-5.82-1.72-8.7-.74-2.86-1.59-5.71-2.67-8.48-1.07-2.77-2.32-5.5-3.98-7.99.93,2.82,1.76,5.62,2.55,8.44.77,2.82,1.53,5.64,2.23,8.48ZM416.41,209.57c.99,1.7,1.94,3.43,2.89,5.15l2.81,5.27c-.19-2.01-.74-3.97-1.44-5.86-.7-1.9-1.6-3.71-2.59-5.47-1.02-1.74-2.13-3.44-3.39-5.02-1.25-1.59-2.61-3.11-4.16-4.45.92,1.81,1.92,3.53,2.91,5.25.98,1.72,2,3.41,2.96,5.13ZM412.48,289.38c-1.81-9.04-3.11-18.18-4.41-27.33-1.26-9.15-2.51-18.32-3.9-27.47.65,9.23,1.4,18.44,2.41,27.64.99,9.2,2.22,18.39,4,27.5,1.9,9.09,3.82,18.11,5.85,27.15,2,9.03,4.13,18.04,6.38,27.03-1.51-9.13-3.15-18.24-4.91-27.32-1.73-9.08-3.58-18.18-5.43-27.21ZM368.84,258.94l1.38-24.11c-1.22,7.97-2.16,15.98-2.87,24.01-.68,8.04-1.33,16.04-1.3,24.19.34,8.1,1.04,16.1,1.78,24.13.74,8.02,1.63,16.03,2.67,24.02-.29-8.05-.68-16.09-1.17-24.13l-.72-12.05c-.24-4.01-.52-8.04-.64-12.02-.1-3.96.12-7.99.28-12,.16-4.01.39-8.03.59-12.04Z"/>
      </g>
    </g>
    <g id="Top">
      <g>
        <g>
          <path class="cls-21" d="M301.81,165.7c.68-.14,1.28.15,2.7.34-1.6-.64-3.88-1.6-5.27-3.24-.21-.25-.45-.65-.49-.97-.04-.3,0-1.17.44-1.42,0,0-.87-.69-1.63-1.27-.62-.48-1.95-1.67-.99-2.39.76-.56,2.01-.35,3.41.16-.75-.56-1.28-1.09-1.35-1.5-.2-1.22.49-1.98,3.04-1.18,2.55.8,8.96,3.1,13.76,2.5.86-.11,2.62-.1,3.26-.77h0c.88-.92-.73-2.06-1.4-2.54-.64-.47-1.26-.97-1.84-1.52-.65-.61-1.26-1.28-1.62-2.09-.36-.81-.44-1.79-.03-2.58.22-.42.62-.79,1.08-.52,1.84,1.05,3.72,2.04,5.57,3.08,1.75.99,3.62,1.94,5.17,3.23,1.79,1.48,3.35,3.65,5.93,5.69,2.58,2.04,5.29,3.81,11.46,6.9,3.41,1.7,9.15,4.9,9.15,4.9,0,0,7.01-15.21,9.81-21.25,5.81-12.53,10.91-16.65,23.87-19.42l-7.77,23.53s-5.42,24.31-7.84,32.37c-2.42,8.06-5.76,10.02-8.58,10.3h0c-8.86.78-17.61-8.93-33.2-22.52-1.27-1.11-4.22-3.16-8.4-2.65-1.64.2-3.49.3-4.58.38-1.31.1-3.72-.09-5.03-.27-2.75-.4-2.75-.2-6.93-2.32-.52-.26-2.62-1.48-2.58-2.06.04-.49.39-.78.87-.88Z"/>
          <path class="cls-20" d="M304.52,166.04c1.28.32,2.54.59,3.83.72,1.28.18,2.59.2,3.9.38-1.31.22-2.63.23-3.96.1-1.31-.18-2.64-.5-3.78-1.2Z"/>
          <g>
            <path class="cls-20" d="M327.78,164.05c-.07-.24-.16-.48-.29-.7-.24-.42-.59-.81-.95-1.14-.72-.66-1.61-1.14-2.55-1.41-2.03-.57-4.5-.05-6,1.46-.04.04-.06.25.04.2,1.86-.77,3.74-1.45,5.77-.88,1.68.47,2.95,1.86,3.78,3.34.08.14.23.06.23-.08,0-.29.04-.5-.04-.79Z"/>
            <path class="cls-20" d="M312.66,160.09c-2.12-.21-4.27-.76-6.33-1.28-1.98-.5-3.94-1.14-5.88-1.75-.02,0-.04.05-.02.06,1.97,1.06,4.04,1.75,6.21,2.27,2,.48,3.97.59,6.01.74.02,0,.03-.04.01-.04Z"/>
            <path class="cls-20" d="M313.29,163.65c-2.12-.21-4.27-.76-6.33-1.28-.79-.2-1.58-.42-2.37-.65-.77-.23-1.56-.44-2.3-.74-.23-.09-.46-.19-.69-.28-.29-.12-.56-.27-.88-.34-.32-.07-.66-.08-.98-.03-.03,0-.07.03-.05.06.41,0,.82.11,1.21.26.26.1.5.23.75.36.22.12.44.21.66.31.7.32,1.42.6,2.15.85.92.31,1.85.58,2.8.8,2,.48,3.97.59,6.01.74.02,0,.03-.04.01-.04Z"/>
          </g>
        </g>
        <g>
          <path class="cls-3" d="M385.86,129.82c-12.34,1.44-17.75,6.07-22.38,14.7-3.37,6.28-11.64,25.42-11.64,25.42l-9.93-4.91s1.12,2.39-.7,7.66c-1.82,5.27-6.35,6.91-6.35,6.91,0,0,6.92,6.9,12.95,11.3,6.03,4.39,11.8,7.37,16.66,4.51,4.86-2.86,6.15-8.45,7.88-15.08,1.73-6.63,6.28-27.22,6.28-27.22l7.23-23.28Z"/>
          <path class="cls-2" d="M364.18,183.16c-2.29-5.37-7.42-11.45-12.35-13.22,0,0,.43-.99,1.03-2.37,7.58,3.02,10.23,10.49,11.31,15.59Z"/>
        </g>
      </g>
      <path class="cls-2" d="M424.79,136.71h-20.63c-.63-9.13-.19-18.31.49-27.45.49-6.52,1.09-13.03,1.82-19.53.18-1.65.4-3.35,1.25-4.77,1.87-3.12,6.44-2.66,9.39-1.62,3.39,1.2,6.34,3.74,7.83,7.03,1.52,3.37,1.57,7.19,1.55,10.89-.07,11.83-.65,23.66-1.7,35.45Z"/>
      <g id="Head">
        <path class="cls-2" d="M393.73,122.99c.16.14.28.25.34.31,1,.95,2.16,1.64,3.48,2.09,1.22.42,2.16.22,3.37.23,1.8.01,3.76.68,5.53.14.77-.24.99-.76,1.48-1.37.67-.83,1.38-1.63,2.06-2.45,2.71-3.27,5.32-6.65,7.43-10.35,2.81-4.94,4.7-10.55,4.45-16.22-.11-2.44-.64-4.92-2.03-6.93-1.39-2-3.75-3.45-6.18-3.27-.29-1.58-1.78-4.49-3-5.54-5.36-4.63-9.3-4.55-14.75-4.67-4.21-.09-10.21,1.44-13.8,3.65-3.59,2.21-6.29,6.46-7.16,10.58-1,4.74,1.01,8.71,3.88,11.8,2.56,2.76,6.8,4.78,7.64,8.79.27,1.25.15,2.56.4,3.82.49,2.55,2.36,4.58,4.15,6.46-.05.43,1.87,2.15,2.73,2.92Z"/>
        <path class="cls-21" d="M388.12,131.48s1.11-1.05,2.43-1.24c.94-.13,1.3-.81,1.3-2.43s0-2.94,0-2.94c-3.32.17-6.09-.57-8.41-2.55-3.5-2.99-5.43-8.98-5.17-15.45.17-4.3,1.26-6.32,1.19-7.29-.43-5.75,0-6.78,1.31-9.77,2.35-4.77,8.41-6.56,11.08-1.51,7.43-5.94,15.82,1.66,15.6,10.54-.93,7.34,1.33,7.68,2.76,7.71,2.06-4.59,6.79-4.58,8.82-1.65,1.83,2.65,1.93,6.86-1.61,10.55-3.35,3.49-7.02,1.26-7.2,0,0,0-.44,10.52-.5,12.49-.05,1.97.36,4.15,2.82,4.93,0,0,0,0,0,0,2.51.8,3.1,1.32,3.1,1.32,0,0-.55.41-.92.83-.87,1.04-2.17,1.96-5.4,5.87-8.3,3.22-18.21,7.69-24.06,11.27-2.03-4.88-3.94-12.84-3.94-12.84,3.06-4.54,6.79-7.87,6.79-7.87Z"/>
        <path class="cls-25" d="M411.85,113.62c0,.96.78,1.73,1.73,1.73s1.73-.78,1.73-1.73-.78-1.73-1.73-1.73-1.73.78-1.73,1.73Z"/>
        <g>
          <g>
            <path class="cls-2" d="M382.78,95.09l4.28-1.21c-.29-1.21-1.49-1.91-2.67-1.57-1.18.34-1.9,1.58-1.61,2.79Z"/>
            <path class="cls-2" d="M402.49,96.02l-4.15-1.77c.45-1.17,1.74-1.73,2.89-1.24,1.15.49,1.71,1.83,1.26,3.01Z"/>
            <path class="cls-15" d="M390.25,112.85l6.36-1.78c.56,1.75-.4,3.57-2.16,4.06-1.75.49-3.63-.53-4.2-2.28Z"/>
            <path class="cls-4" d="M396.75,111.99c.04,1.43-.86,2.74-2.3,3.14-.48.13-.97.15-1.44.07.48-1.73,1.95-2.99,3.74-3.21Z"/>
            <path class="cls-2" d="M386.48,100.89c.04.99-.74,1.85-1.75,1.92-1,.07-1.85-.68-1.89-1.68-.04-.99.74-1.85,1.75-1.92,1-.07,1.85.68,1.89,1.68Z"/>
            <path class="cls-2" d="M399.57,101.64c.04,1.01-.76,1.89-1.78,1.96-1.03.07-1.89-.7-1.93-1.71-.04-1.01.76-1.89,1.78-1.96,1.03-.07,1.89.7,1.93,1.71Z"/>
          </g>
          <path class="cls-20" d="M391.85,124.87c7.08-.46,13.92-2.15,15.8-6.4,0,0-.11,3.83-4.23,5.87-5.96,2.95-11.56,2.7-11.56,2.7v-2.17Z"/>
        </g>
        <path class="cls-3" d="M375.67,96.83c-.02.72.41,1.4.63,1.69.12.15.22.35.26.6.18,1.14.21,3.29.67,4.51.46,1.22,1.47,3.18,4.87,3.39.66.04,1.25.02,1.78-.07.05,0,.09-.01.14-.02.56-.1,1.06-.26,1.49-.46.41-.2.83-.47,1.17-.78.56-.49.98-1.06,1.33-1.65.91-1.53.94-3.72,2.2-3.93.05,0,.1-.01.15-.01.05,0,.1,0,.16,0,1.67.09,1.24,2.46,2.01,4.2.76,1.74,2.14,3.46,5.78,3.66,1.32.08,2.71-.12,3.84-.8.22-.13.42-.28.62-.44.6-.5.99-1.07,1.26-1.53.69-1.16,1.05-3.29,1.45-4.39.11-.29.23-.49.34-.63.27-.31.89-.85.98-1.56.09-.71-.39-1.36-.87-1.44-.28-.05-.58-.1-.88-.15-2.84-.44-6.56-.73-8.86-.26-2.88.6-3.94,1.39-5.5,1.3-1.46-.09-2.32-.99-4.9-1.91-2.06-.73-5.56-.85-8.25-.73-.29.01-.57.03-.84.05-.46.03-1.01.65-1.03,1.37ZM393.96,99.21c1.32-1.12,3.44-1.37,5.15-1.48,2.72-.09,4.35.57,4.91,1.1.58.56.06,2.86-.32,4.02-.26.85-.64,1.73-1.25,2.42-.76.87-1.97,1.58-3.95,1.49-1.95-.08-3.13-.76-3.85-1.57h0c-.71-.81-.96-1.77-1.07-2.42-.2-1.33-.23-2.87.37-3.56ZM378.19,97.33c.16-.13.4-.25.7-.36,1.39-.47,2.84-.38,4.29-.14,1.9.34,3.83,1.25,4.28,2,.45.75.18,2.27-.21,3.57-.08.26-.18.55-.33.86-.17.36-.38.7-.64,1.01-.77.92-2.05,1.69-4.19,1.53-.81-.06-1.46-.25-1.98-.53-1.82-.98-2.11-2.99-2.24-3.92-.17-1.19-.3-3.53.32-4.02Z"/>
        <path class="cls-20" d="M385.09,106.99l6.42,2.62.68-6.46c-.32-1.44-.35-2.89-1.56-3.04l-5.54,6.88Z"/>
        <path class="cls-3" d="M405.71,98.05l9.18,4.84c-.73.1-1.41.2-2.4.82l-7.05-3.74.27-1.92Z"/>
      </g>
      <g id="Chest">
        <g>
          <path class="cls-25" d="M367.74,180.43c.16-3.03.26-7.34-.07-11.2,0,0-4.62-4.79-4.62-10.96,0-6.48,2.84-10.9,9.62-17.32,6.96-6.59,12.77-10.02,12.77-10.02l5.42-.75s-3.65,7.15-1.65,11.18c10.62-.8,19.73-5.37,23.46-8.55l8.84,1.74s5.39,11.32,3.22,20.69c-1.17,5.07-3.5,13.66-5.39,20.47-1.83,6.6-1.19,13.64,1.81,19.79.27.56.55,1.13.82,1.68,2.55,5.27,5.93,14.97,5.93,14.97,0,0-14.84,6.65-39.22,3.69-24.38-2.96-26.4-7.26-26.4-7.26l4.55-21.22c.49-2.29.8-4.61.92-6.95Z"/>
          <path class="cls-14" d="M408.29,169.42s-2.55,7.8-12.07,8.57c-8.71.7-12.98-6.25-12.98-6.25,0,0,1.47,9.92,13.25,8.64,11.76-1.28,11.8-10.96,11.8-10.96Z"/>
        </g>
        <g>
          <path class="cls-9" d="M409.73,128.86s-8.82,20.07-12.13,29.75c-3.31,9.69-2.09,17.58-1.66,35.36.33,13.69,1.03,34.35,1.03,34.35,0,0,25.92.62,34.32-10.63-1.85-6.87-7.89-22.95-9.44-27.35-1.55-4.4-.56-8.19,2.59-18.1,3.15-9.91,7.81-15.22,7.97-22.64.15-7.42-6.59-14.12-8.42-15.47-9.92-2.3-13.83-2.95-14.24-5.29Z"/>
          <path class="cls-9" d="M390.86,130.17s-18.22,16.95-20.11,34.4c-1.89,17.45-4.45,55.76-4.45,55.76,0,0-1.88-.96-5.43-5.16,1.09-7.92,5.03-39.21,4.43-42.84-.6-3.63-8.86-12.14-.56-23.53,8.3-11.39,21.13-18.98,21.13-18.98l5.93-.96c0,.62-.38,1.16-.92,1.31Z"/>
          <path class="cls-3" d="M383.18,133.86c-1.15.96-2.3,1.94-3.42,2.94-2.24,2.01-4.46,4.04-6.61,6.14-1.07,1.06-2.14,2.12-3.17,3.22-.52.55-1.03,1.1-1.53,1.68-.48.57-1.04,1.19-1.32,2.04-.26.81-.27,1.63-.23,2.41.03.79.18,1.55.34,2.3.32,1.41.76,2.76,1.29,4.1-1.21,1.45-2.38,2.91-3.15,4.74-.1.24-.17.51-.22.78-.02.28-.04.57,0,.81.02.51.09,1,.15,1.49.13.97.29,1.94.46,2.9.67,3.85,1.51,7.65,2.43,11.44-.61-3.85-1.22-7.7-1.77-11.54-.13-.96-.25-1.92-.34-2.88-.04-.48-.08-.96-.09-1.42-.02-.47.03-.83.21-1.26.71-1.67,1.98-3.22,3.22-4.64l.19-.22-.11-.28c-.53-1.36-.98-2.79-1.28-4.22-.15-.72-.26-1.44-.31-2.15-.05-.71-.04-1.43.16-2.05.17-.6.62-1.14,1.1-1.71.47-.56.97-1.12,1.48-1.66,1.01-1.1,2.06-2.17,3.11-3.24,2.1-2.14,4.22-4.27,6.38-6.35,2.16-2.08,4.3-4.19,6.59-6.13-1.24.85-2.4,1.82-3.56,2.78Z"/>
          <path class="cls-3" d="M413.16,158.27l.09-2.38.18-4.77c.18-6.36.35-11.58.38-17.96-.52,6.35-.89,11.58-1.25,17.95l-.23,4.77-.12,2.39-.03.59c0,.15-.03.3-.08.44-.1.29-.29.58-.52.84-.98,1.04-2.45,1.7-3.87,2.29-1.45.57-2.97,1.03-4.48,1.38l-.52.12.17.5c.68,1.96,1.32,3.96,1.77,5.97.11.5.21,1.01.27,1.51.07.49.1,1.02,0,1.38l-.03.13-.09.17-1.32,2.41c-1,1.84-2.02,3.67-2.99,5.53l-2.93,5.56,3.28-5.36c1.1-1.79,2.15-3.6,3.22-5.4l.8-1.35.4-.68.3-.51.09-.24c.19-.65.13-1.19.09-1.73-.05-.54-.14-1.07-.25-1.59-.41-1.91-.96-3.77-1.57-5.61,1.41-.33,2.79-.73,4.14-1.24,1.5-.6,3.03-1.27,4.25-2.57.29-.33.56-.73.71-1.19.07-.24.11-.48.11-.73l.02-.6Z"/>
        </g>
      </g>
      <g id="Key">
        <g>
          <g>
            <g>
              <g>
                <polygon class="cls-11" points="261.31 140.84 267.34 144.32 267.34 161.49 261.31 158.01 261.31 140.84"/>
                <polygon class="cls-17" points="261.31 140.84 267.34 144.32 267.34 161.49 261.31 158.01 261.31 140.84"/>
              </g>
              <polygon class="cls-11" points="261.31 140.84 267.34 144.32 269.53 143.06 263.5 139.57 261.31 140.84"/>
              <polygon class="cls-11" points="267.34 161.49 269.57 160.22 269.53 143.06 267.34 144.32 267.34 161.49"/>
            </g>
            <g>
              <g>
                <polygon class="cls-11" points="272.14 147.11 278.17 150.6 278.17 157.68 272.14 154.2 272.14 147.11"/>
                <polygon class="cls-17" points="272.14 147.11 278.17 150.6 278.17 157.68 272.14 154.2 272.14 147.11"/>
              </g>
              <polygon class="cls-11" points="272.14 147.11 278.17 150.6 280.37 149.33 274.34 145.85 272.14 147.11"/>
              <polygon class="cls-11" points="278.17 157.68 280.4 156.42 280.37 149.33 278.17 150.6 278.17 157.68"/>
            </g>
            <g>
              <g>
                <polygon class="cls-11" points="284.38 154.2 284.38 147.24 256.7 131.21 256.7 138.17 284.38 154.2"/>
                <polygon class="cls-17" points="284.38 154.2 284.38 147.24 256.7 131.21 256.7 138.17 284.38 154.2"/>
              </g>
              <polygon class="cls-11" points="284.38 154.2 284.38 147.24 286.58 145.97 286.58 152.94 284.38 154.2"/>
              <g>
                <polygon class="cls-11" points="256.7 131.21 258.89 129.94 286.58 145.97 284.38 147.24 256.7 131.21"/>
                <polygon class="cls-17" points="256.7 131.21 258.89 129.94 286.58 145.97 284.38 147.24 256.7 131.21"/>
              </g>
            </g>
          </g>
          <g>
            <path class="cls-11" d="M355.43,179.18l-4.34,7.52-96.11-55.51c-.06-.02-.13-.06-.19-.11-.59-.39-.97-1.3-.97-2.56,0-2.21,1.17-4.68,2.6-5.51.53-.3,1.03-.35,1.44-.16.05.02.11.05.16.09l97.42,56.25Z"/>
            <path class="cls-17" d="M355.43,179.18l-4.34,7.52-96.11-55.51c-.06-.02-.13-.06-.19-.11-.59-.39-.97-1.3-.97-2.56,0-2.21,1.17-4.68,2.6-5.51.53-.3,1.03-.35,1.44-.16.05.02.11.05.16.09l97.42,56.25Z"/>
          </g>
          <path class="cls-1" d="M253.85,127.87c-.02.22-.04.43-.04.65,0,1.26.38,2.17.97,2.56.06.04.13.09.19.11l96.11,55.51,1.16-2.01-98.4-56.81Z"/>
          <g>
            <g>
              <polygon class="cls-11" points="279.07 138.38 279.07 131.42 264.21 122.81 264.21 129.77 279.07 138.38"/>
              <polygon class="cls-22" points="279.07 138.38 279.07 131.42 264.21 122.81 264.21 129.77 279.07 138.38"/>
            </g>
            <polygon class="cls-11" points="279.07 138.38 279.07 131.42 281.26 130.15 281.26 137.12 279.07 138.38"/>
            <g>
              <polygon class="cls-11" points="264.21 122.81 266.41 121.54 281.26 130.15 279.07 131.42 264.21 122.81"/>
              <polygon class="cls-17" points="264.21 122.81 266.41 121.54 281.26 130.15 279.07 131.42 264.21 122.81"/>
            </g>
          </g>
        </g>
        <g>
          <path class="cls-11" d="M381.73,228.65c-3.28,0-6.77-1.02-10.27-3.03-12.64-7.3-22.54-26.04-22.54-42.68,0-9.48,3.36-16.85,9.21-20.23,5.1-2.94,11.37-2.56,17.67,1.07,12.64,7.3,22.54,26.04,22.54,42.68,0,9.48-3.36,16.85-9.21,20.23-2.27,1.31-4.77,1.96-7.4,1.96ZM365.56,169.42c-1.06,0-2.11.23-3.09.8-3.05,1.76-4.87,6.52-4.87,12.72,0,13.37,8.34,29.47,18.2,35.17,2.48,1.43,6.05,2.78,8.99,1.07,3.05-1.76,4.87-6.52,4.87-12.72,0-13.37-8.34-29.47-18.2-35.17-1.65-.95-3.79-1.87-5.9-1.87Z"/>
          <path class="cls-17" d="M375.79,163.78c-6.3-3.64-12.57-4.02-17.66-1.08-5.85,3.38-9.21,10.75-9.21,20.23,0,16.63,9.9,35.38,22.55,42.67,3.5,2.02,6.99,3.03,10.27,3.03,2.63,0,5.13-.65,7.4-1.95,5.85-3.38,9.21-10.75,9.21-20.23,0-16.63-9.9-35.37-22.55-42.67ZM384.79,219.17c-2.95,1.71-6.51.36-8.99-1.07-9.86-5.7-18.2-21.8-18.2-35.17,0-6.21,1.82-10.96,4.88-12.72.98-.57,2.03-.8,3.09-.8,2.12,0,4.25.92,5.91,1.87,9.87,5.7,18.2,21.8,18.2,35.17,0,6.21-1.82,10.96-4.88,12.72Z"/>
          <path class="cls-1" d="M375.79,218.1c-9.86-5.7-18.2-21.8-18.2-35.17,0-6.21,1.82-10.96,4.88-12.72.53-.31,1.09-.51,1.65-.64-1,.18-1.99.53-2.93,1.13-3.54,2.24-5.81,7.45-6.06,13.96-.53,14.02,8.31,29.83,19.29,34.54,2.57,1.09,6.2,1.99,9.44.38-2.74.99-5.83-.22-8.06-1.5Z"/>
          <path class="cls-5" d="M365.04,162.23c7.55-.99,28.35,10.2,31.71,39.4-4.06-15.52-12.89-32.79-31.71-39.4Z"/>
        </g>
      </g>
      <g id="Arm">
        <g id="Arm-2" data-name="Arm">
          <g>
            <path class="cls-21" d="M424.38,190.94c-5.83,1.64-12.21,3.37-13.47,3.78-2.73.88-4.14.11-5.74-.92-1.95-1.26-4.25-2.86-5.17-3.56-.95-.71-2.69-2.03-3.98-2.06-1.05-.02-3.55,1.53-5.8,2.74-2.25,1.21-3.55,2.38-4.53,3.45-.98,1.07-3.41,4.88-3.45,6.21-.04,1.33,1.34,1.8,2.77,1.02,1.26-.68,2.85-3.36,4.32-4.27,1.47-.9,5.45-2.81,5.45-2.81,0,0-4.72,3.15-5.32,3.68-.6.53-2.32,2.71-2.91,3.39-.59.69-1.29,2.45-.95,2.99.34.53,1.26,1.36,1.88,1.19.62-.17,1.07-.48,1.07-.48,0,0,.16.62.5,1.15.34.53.63.66.63.66,0,0-.06.84.79,1.44.65.47,1.34.48,1.88.48,1.56,0,2.4-.22,4.04-.61,3-.72,4.35-.78,7.34.68,2.3,1.13,5.25,1.43,7.5.79,1.39-.39,4.31-1.27,10.1-1.83.95-.09,1.98-.17,3.06-.25v-16.87Z"/>
            <path class="cls-20" d="M387.47,205.77c-.27.07-.59-.05-.9-.24,0,0,.57-.02,1.61-.72,1.05-.71,3.5-3.22,5.32-4.23,1.82-1,3.96-1.89,4.56-2.68-.34.63-2.22,1.96-4.32,3.21-2.1,1.25-5.19,4.17-5.19,4.17,0,0-.45.31-1.07.48Z"/>
            <path class="cls-20" d="M392.09,206.4c.74-.25,3.81-2.02,4.95-2.63,1.14-.62,2.92-1.79,2.92-1.79,0,0-1.17,1.19-2.22,1.81-1.04.62-4.12,2.39-5.38,2.9-1.26.51-2.07.52-2.68.42,0,0-.29-.13-.63-.66.92.59,2.31.21,3.04-.04Z"/>
          </g>
        </g>
        <path class="cls-3" d="M423.98,134.15c8.74,1.53,12.21,6.87,16.05,18.21,5.25,15.5,9.86,30.77,10.85,38.53l-20.61-5.64-11.02-22.19s-4.14-17.82,4.74-28.92Z"/>
        <path class="cls-3" d="M450.87,190.89c.25,3.65-.4,5.57-2.08,7.14-1.69,1.57-8.64,4.85-12.9,6.34-4.27,1.49-15.47,4.52-17.61,4.91,2.22-3.47,1.08-8.3-.8-11.38-1.89-3.08-4.09-3.91-4.09-3.91l16.88-8.74,1.16-9.08,19.45,14.72Z"/>
      </g>
    </g>
  </g>
  <g id="Padlock">
    <g id="Padlock-2" data-name="Padlock">
      <g id="Padlock-3" data-name="Padlock">
        <path class="cls-23" d="M237.81,195.6c0-3.2-2.11-6.39-6.33-8.83l-12.45-7.19c-8.44-4.88-22.14-4.88-30.58,0l-112.86,65.16c-4.23,2.44-6.34,5.64-6.33,8.84h0v149.07h0c-.01,3.2,2.1,6.41,6.33,8.85l12.45,7.19c8.45,4.88,22.14,4.88,30.58,0l112.87-65.16c4.22-2.44,6.33-5.63,6.33-8.83h0v-149.1h0Z"/>
        <path class="cls-17" d="M88.02,269.59l-12.45-7.19c-8.45-4.88-8.45-12.78,0-17.66l112.86-65.16c8.45-4.88,22.14-4.88,30.58,0l12.45,7.19c8.45,4.88,8.45,12.78,0,17.66l-112.87,65.16c-8.45,4.88-22.14,4.88-30.58,0Z"/>
        <path class="cls-23" d="M204.24,197.4c5.04,2.91,5.04,7.63,0,10.54-5.04,2.91-13.22,2.91-18.26,0s-5.04-7.63,0-10.54c5.04-2.91,13.22-2.91,18.26,0Z"/>
        <path class="cls-12" d="M204.24,197.4c5.04,2.91,5.04,7.63,0,10.54-5.04,2.91-13.22,2.91-18.26,0s-5.04-7.63,0-10.54c5.04-2.91,13.22-2.91,18.26,0Z"/>
        <path class="cls-12" d="M185.98,207.82s-.06.04-.1.06c.03.02.06.04.1.06,5.04,2.91,13.22,2.91,18.26,0,.04-.02.06-.04.1-.06-.03-.02-.06-.04-.1-.06-5.04-2.91-13.22-2.91-18.26,0Z"/>
        <path class="cls-12" d="M103.33,273.25v149.1c-5.55,0-11.09-1.2-15.29-3.64l-12.47-7.2c-4.24-2.44-6.36-5.65-6.32-8.86v-149.06c0,3.21,2.08,6.39,6.32,8.83l12.47,7.2c4.2,2.44,9.75,3.64,15.29,3.64Z"/>
        <g>
          <path class="cls-19" d="M185.46,347l-26.95,15.56,4.18-48.75c-3.22-1.7-5.28-5.9-5.28-11.92,0-10.73,6.53-23.2,14.58-27.85,8.05-4.65,14.58.29,14.58,11.02,0,6.02-2.05,12.59-5.28,18.01l4.18,43.93Z"/>
          <polygon class="cls-6" points="185.46 347 161.05 332.9 158.51 362.56 185.46 347"/>
          <path class="cls-6" d="M171.99,274.03c-5.27,3.04-9.87,9.44-12.43,16.5l21.73,12.55h0c3.22-5.43,5.28-12,5.28-18.02,0-10.73-6.53-15.67-14.58-11.02Z"/>
        </g>
        <g>
          <path class="cls-8" d="M207.31,128.42v-19.95c0-18.46-6.98-33.08-19.14-40.1-11.61-6.7-25.97-5.8-40.44,2.56-26.57,15.34-47.39,52.78-47.39,85.22v90.77h0c0,1.8,1.2,3.6,3.58,4.98,4.76,2.75,12.48,2.75,17.24,0,2.38-1.37,3.58-3.17,3.58-4.98h0v-90.77c0-23.73,16.12-53.08,35.19-64.09,6.5-3.75,12.35-4.69,16.04-2.56,4.35,2.51,6.95,9.61,6.95,18.98v19.95h0s0,0,0,0v.03h0c.02,1.79,1.21,3.57,3.57,4.93,4.76,2.75,12.48,2.75,17.24,0,2.36-1.36,3.56-3.15,3.57-4.93h0v-.02s0-.01,0-.02h0Z"/>
          <path class="cls-8" d="M171.36,65.81c5.71,0,11.04,1.41,15.85,4.19,11.56,6.68,18.2,20.7,18.2,38.46v19.98c-.02,1.15-.97,2.36-2.63,3.31-1.99,1.15-4.79,1.81-7.67,1.81s-5.68-.66-7.67-1.81c-1.66-.96-2.62-2.16-2.63-3.31v-.37s0-19.6,0-19.6c0-10.21-2.88-17.72-7.89-20.62-1.58-.91-3.46-1.37-5.59-1.37-3.62,0-7.89,1.36-12.35,3.93-19.59,11.31-36.14,41.41-36.14,65.73v90.77c0,1.15-.96,2.37-2.63,3.34-1.99,1.15-4.79,1.81-7.67,1.81s-5.68-.66-7.67-1.81c-1.61-.93-2.57-2.1-2.63-3.21v-90.9c0-31.83,20.4-68.55,46.44-83.58,7.75-4.48,15.39-6.75,22.69-6.74h0M171.36,63.92c-7.54,0-15.57,2.34-23.64,7-26.57,15.34-47.39,52.78-47.39,85.22v90.77h0c0,1.8,1.2,3.6,3.58,4.98,2.38,1.37,5.5,2.06,8.62,2.06s6.24-.69,8.62-2.06c2.38-1.37,3.58-3.17,3.58-4.98h0v-90.77c0-23.73,16.12-53.08,35.19-64.09,4.21-2.43,8.14-3.68,11.4-3.68,1.77,0,3.34.37,4.65,1.12,4.35,2.51,6.95,9.61,6.95,18.98v19.95h0s0,0,0,0v.03h0c.02,1.79,1.21,3.57,3.57,4.93,2.38,1.37,5.5,2.06,8.62,2.06s6.24-.69,8.62-2.06c2.36-1.36,3.56-3.15,3.57-4.93h0v-.02s0-.01,0-.02h0v-19.95c0-18.46-6.98-33.08-19.14-40.1-5.14-2.97-10.81-4.44-16.8-4.44h0Z"/>
        </g>
        <path class="cls-8" d="M158.88,67.91c-1.29.61-3.77,2.03-5.06,2.78-26.56,15.34-46.21,53.39-46.21,85.84v87.46c0,1.83,1.18,3.62,3.59,4.98,3.12,1.79,7.46,2.44,11.4,1.86-.39.39-.9.72-1.43,1.04-4.77,2.76-12.48,2.76-17.24,0-2.4-1.36-3.59-3.15-3.59-4.98v-87.5c0-32.44,20.83-71.15,47.39-86.5,3.73-2.15,7.46-3.88,11.15-4.99Z"/>
      </g>
    </g>
  </g>
  <g id="Plants">
    <g id="Plants-2" data-name="Plants">
      <g>
        <path class="cls-10" d="M83.49,416.06l-19.14,11.05c.26-6.83.85-16.99-.09-23.83-5.78-41.83-22.08-55.63-29.83-75.99-8.16-21.44,1.79-28.34,14.72-24.49,11.53,3.44,28.21,20.5,33.47,51.72,3.49,20.77,2.87,43.32.87,61.54Z"/>
        <path class="cls-13" d="M83.49,416.06l-19.14,11.05c.26-6.83.85-16.99-.09-23.83-5.78-41.83-22.08-55.63-29.83-75.99-8.16-21.44,1.79-28.34,14.72-24.49,11.53,3.44,28.21,20.5,33.47,51.72,3.49,20.77,2.87,43.32.87,61.54Z"/>
        <path class="cls-25" d="M73.35,421.91l-1.92,1.11c6.85-48.77-9.83-91.07-26.29-108.54-.32-.33-.3-.87.03-1.18.35-.32.87-.3,1.19.03,16.45,17.48,33.12,60.06,26.98,108.59Z"/>
      </g>
      <g>
        <path class="cls-10" d="M69.73,424l-10.77,6.22h0c-5.73-16.86-11.61-23.61-18.91-34.7-6.65-10.09-14.39-16.34-18.5-23.44-3.64-6.28-6.37-14.17-.97-18.95,8.61-7.6,19.84.44,27.57,9.13,6.68,7.52,20.11,27.52,21.58,61.73Z"/>
        <path class="cls-17" d="M69.73,424l-10.77,6.22h0c-5.73-16.86-11.61-23.61-18.91-34.7-6.65-10.09-14.39-16.34-18.5-23.44-3.64-6.28-6.37-14.17-.97-18.95,8.61-7.6,19.84.44,27.57,9.13,6.68,7.52,20.11,27.52,21.58,61.73Z"/>
        <path class="cls-25" d="M65.31,426.55l-1.57.91c-4.52-26.67-22.63-57.52-33.89-64.81-.39-.26-.51-.79-.25-1.19.25-.4.78-.52,1.18-.25,11.65,7.56,29.73,38.26,34.52,65.34Z"/>
      </g>
    </g>
  </g>
</svg>