<?xml version="1.0" encoding="utf-8"?>
<!-- Generator: Adobe Illustrator 28.5.0, SVG Export Plug-In . SVG Version: 9.03 Build 54727)  -->
<svg version="1.1" id="Layer_1" xmlns="http://www.w3.org/2000/svg" xmlns:xlink="http://www.w3.org/1999/xlink" x="0px" y="0px"
	 viewBox="0 0 288 308.45" style="enable-background:new 0 0 288 308.45;" xml:space="preserve">
<style type="text/css">
	.st0{fill:#AB6334;}
	.st1{fill:#DBA914;}
	.st2{fill:#2670A8;}
	.st3{fill:#869B5B;}
	.st4{opacity:0;fill:none;}
</style>
<path class="st0" d="M35.7,64.04c-5.76-1.7-41.51,55.25-29.24,119.3c7.38,38.51,28.99,63.23,38.55,72.99
	c10.59,3.13,30.89,7.54,55.82,2.81c24.33-4.61,41.6-15.75,50.51-22.46C87.29,207.35,41.7,169.85,33.69,121.29
	C28.75,91.28,39.49,65.16,35.7,64.04z"/>
<path class="st1" d="M58.6,267.84c-1.64,6.07,52.13,44.09,112.84,31.42c36.5-7.62,60.01-30.32,69.29-40.37
	c3.01-11.17,7.28-32.59,2.91-58.94c-4.26-25.71-14.73-44-21.04-53.44c-28.06,67.49-63.78,115.47-109.81,123.7
	C84.37,275.3,59.68,263.84,58.6,267.84z"/>
<path class="st2" d="M226.89,37.69c1.52-6.11-53-42.93-113.44-28.93C77.11,17.18,54.06,40.4,44.97,50.65
	c-2.79,11.23-6.63,32.74-1.75,58.99c4.77,25.61,15.6,43.67,22.09,52.96C92.04,94.5,126.8,45.75,172.65,36.51
	C200.98,30.8,225.89,41.71,226.89,37.69z"/>
<path class="st3" d="M252.79,240.73c5.79,1.58,40.46-56.12,26.97-119.9c-8.11-38.35-30.18-62.6-39.92-72.16
	c-10.65-2.9-31.03-6.88-55.87-1.63c-24.24,5.13-41.29,16.63-50.07,23.52c64.59,27.96,110.89,64.49,119.81,112.88
	C259.22,213.34,248.98,239.69,252.79,240.73z"/>
<rect x="-23.25" y="-9.25" class="st4" width="333.68" height="333.68"/>
</svg>
